name rise38.3101peak57.3503fall81.6963.mot
datacolumns 19
datarows 30
range 23.95824900000000 24.00657700000000
endheader
time	ground_force1_vx	ground_force1_vy	ground_force1_vz	ground_force1_px	ground_force1_py	ground_force1_pz	ground_force2_vx	ground_force2_vy	ground_force2_vz	ground_force2_px	ground_force2_py	ground_force2_pz	ground_torque1_x	ground_torque1_y	ground_torque1_z	ground_torque2_x	ground_torque2_y	ground_torque2_z	
23.95824900000000	-9.02048500000000	709.61792500000001	38.78942300000000	0.22806800000000	0.00000000000000	0.09520200000000	0.00000000000000	0.00000000000000	0.00000000000000	0.00000000000000	0.00000000000000	0.00000000000000	0.00000000000000	20.03100100000000	0.00000000000000	0.00000000000000	0.00000000000000	0.00000000000000	
23.95991200000000	-9.34618800000000	710.36896400000001	38.74261400000000	0.22758400000000	0.00000000000000	0.09511800000000	0.00000000000000	0.00000000000000	0.00000000000000	0.00000000000000	0.00000000000000	0.00000000000000	0.00000000000000	20.06070300000000	0.00000000000000	0.00000000000000	0.00000000000000	0.00000000000000	
23.96158400000000	-9.67265000000000	711.13158499999997	38.69875100000000	0.22711000000000	0.00000000000000	0.09503300000000	0.00000000000000	0.00000000000000	0.00000000000000	0.00000000000000	0.00000000000000	0.00000000000000	0.00000000000000	20.09313300000000	0.00000000000000	0.00000000000000	0.00000000000000	0.00000000000000	
23.96324800000000	-10.00039900000000	711.90466700000002	38.65777400000000	0.22664500000000	0.00000000000000	0.09494900000000	0.00000000000000	0.00000000000000	0.00000000000000	0.00000000000000	0.00000000000000	0.00000000000000	0.00000000000000	20.12823000000000	0.00000000000000	0.00000000000000	0.00000000000000	0.00000000000000	
23.96491100000000	-10.32994300000000	712.68720499999995	38.61962800000000	0.22618500000000	0.00000000000000	0.09486500000000	0.00000000000000	0.00000000000000	0.00000000000000	0.00000000000000	0.00000000000000	0.00000000000000	0.00000000000000	20.16593300000000	0.00000000000000	0.00000000000000	0.00000000000000	0.00000000000000	
23.96657700000000	-10.66178000000000	713.47830599999998	38.58426800000000	0.22572800000000	0.00000000000000	0.09478100000000	0.00000000000000	0.00000000000000	0.00000000000000	0.00000000000000	0.00000000000000	0.00000000000000	0.00000000000000	20.20617900000000	0.00000000000000	0.00000000000000	0.00000000000000	0.00000000000000	
23.96824700000000	-10.99638400000000	714.27719400000001	38.55165200000000	0.22527300000000	0.00000000000000	0.09469800000000	0.00000000000000	0.00000000000000	0.00000000000000	0.00000000000000	0.00000000000000	0.00000000000000	0.00000000000000	20.24890200000000	0.00000000000000	0.00000000000000	0.00000000000000	0.00000000000000	
23.96991500000000	-11.33421300000000	715.08321300000000	38.52175000000000	0.22481700000000	0.00000000000000	0.09461500000000	0.00000000000000	0.00000000000000	0.00000000000000	0.00000000000000	0.00000000000000	0.00000000000000	0.00000000000000	20.29403900000000	0.00000000000000	0.00000000000000	0.00000000000000	0.00000000000000	
23.97158200000000	-11.67569900000000	715.89582700000005	38.49453800000000	0.22435700000000	0.00000000000000	0.09453300000000	0.00000000000000	0.00000000000000	0.00000000000000	0.00000000000000	0.00000000000000	0.00000000000000	0.00000000000000	20.34152200000000	0.00000000000000	0.00000000000000	0.00000000000000	0.00000000000000	
23.97324500000000	-12.02125100000000	716.71461799999997	38.47000000000000	0.22389100000000	0.00000000000000	0.09445200000000	0.00000000000000	0.00000000000000	0.00000000000000	0.00000000000000	0.00000000000000	0.00000000000000	0.00000000000000	20.39128400000000	0.00000000000000	0.00000000000000	0.00000000000000	0.00000000000000	
23.97491100000000	-12.37125000000000	717.53928800000006	38.44813000000000	0.22341800000000	0.00000000000000	0.09437200000000	0.00000000000000	0.00000000000000	0.00000000000000	0.00000000000000	0.00000000000000	0.00000000000000	0.00000000000000	20.44326000000000	0.00000000000000	0.00000000000000	0.00000000000000	0.00000000000000	
23.97658000000000	-12.72605100000000	718.36965799999996	38.42893200000000	0.22293500000000	0.00000000000000	0.09429400000000	0.00000000000000	0.00000000000000	0.00000000000000	0.00000000000000	0.00000000000000	0.00000000000000	0.00000000000000	20.49738300000000	0.00000000000000	0.00000000000000	0.00000000000000	0.00000000000000	
23.97825100000000	-13.08597500000000	719.20566399999996	38.41241900000000	0.22244100000000	0.00000000000000	0.09421600000000	0.00000000000000	0.00000000000000	0.00000000000000	0.00000000000000	0.00000000000000	0.00000000000000	0.00000000000000	20.55358500000000	0.00000000000000	0.00000000000000	0.00000000000000	0.00000000000000	
23.97991200000000	-13.45131300000000	720.04735500000004	38.39861700000000	0.22193400000000	0.00000000000000	0.09414100000000	0.00000000000000	0.00000000000000	0.00000000000000	0.00000000000000	0.00000000000000	0.00000000000000	0.00000000000000	20.61180000000000	0.00000000000000	0.00000000000000	0.00000000000000	0.00000000000000	
23.98158000000000	-13.82232400000000	720.89489000000003	38.38755900000000	0.22141100000000	0.00000000000000	0.09406600000000	0.00000000000000	0.00000000000000	0.00000000000000	0.00000000000000	0.00000000000000	0.00000000000000	0.00000000000000	20.67196400000000	0.00000000000000	0.00000000000000	0.00000000000000	0.00000000000000	
23.98324900000000	-14.19923000000000	721.74853499999995	38.37929100000000	0.22087300000000	0.00000000000000	0.09399400000000	0.00000000000000	0.00000000000000	0.00000000000000	0.00000000000000	0.00000000000000	0.00000000000000	0.00000000000000	20.73401100000000	0.00000000000000	0.00000000000000	0.00000000000000	0.00000000000000	
23.98491700000000	-14.58221900000000	722.60865600000000	38.37387100000000	0.22031700000000	0.00000000000000	0.09392300000000	0.00000000000000	0.00000000000000	0.00000000000000	0.00000000000000	0.00000000000000	0.00000000000000	0.00000000000000	20.79787800000000	0.00000000000000	0.00000000000000	0.00000000000000	0.00000000000000	
23.98657700000000	-14.97144000000000	723.47571600000003	38.37136700000000	0.21974200000000	0.00000000000000	0.09385400000000	0.00000000000000	0.00000000000000	0.00000000000000	0.00000000000000	0.00000000000000	0.00000000000000	0.00000000000000	20.86350200000000	0.00000000000000	0.00000000000000	0.00000000000000	0.00000000000000	
23.98824700000000	-15.36700700000000	724.35026700000003	38.37186100000000	0.21914700000000	0.00000000000000	0.09378800000000	0.00000000000000	0.00000000000000	0.00000000000000	0.00000000000000	0.00000000000000	0.00000000000000	0.00000000000000	20.93082200000000	0.00000000000000	0.00000000000000	0.00000000000000	0.00000000000000	
23.98991000000000	-15.76899300000000	725.23294799999996	38.37544300000000	0.21853100000000	0.00000000000000	0.09372300000000	0.00000000000000	0.00000000000000	0.00000000000000	0.00000000000000	0.00000000000000	0.00000000000000	0.00000000000000	20.99977700000000	0.00000000000000	0.00000000000000	0.00000000000000	0.00000000000000	
23.99159600000000	-16.17743200000000	726.12447099999997	38.38222000000000	0.21789400000000	0.00000000000000	0.09366100000000	0.00000000000000	0.00000000000000	0.00000000000000	0.00000000000000	0.00000000000000	0.00000000000000	0.00000000000000	21.07030800000000	0.00000000000000	0.00000000000000	0.00000000000000	0.00000000000000	
23.99325100000000	-16.59232000000000	727.02562300000000	38.39230500000000	0.21723400000000	0.00000000000000	0.09360100000000	0.00000000000000	0.00000000000000	0.00000000000000	0.00000000000000	0.00000000000000	0.00000000000000	0.00000000000000	21.14235900000000	0.00000000000000	0.00000000000000	0.00000000000000	0.00000000000000	
23.99491400000000	-17.01361200000000	727.93724799999995	38.40582800000000	0.21655200000000	0.00000000000000	0.09354300000000	0.00000000000000	0.00000000000000	0.00000000000000	0.00000000000000	0.00000000000000	0.00000000000000	0.00000000000000	21.21587200000000	0.00000000000000	0.00000000000000	0.00000000000000	0.00000000000000	
23.99658300000000	-17.44122400000000	728.86024899999995	38.42292700000000	0.21584800000000	0.00000000000000	0.09348800000000	0.00000000000000	0.00000000000000	0.00000000000000	0.00000000000000	0.00000000000000	0.00000000000000	0.00000000000000	21.29079400000000	0.00000000000000	0.00000000000000	0.00000000000000	0.00000000000000	
23.99825000000000	-17.87503100000000	729.79557299999999	38.44375400000000	0.21512100000000	0.00000000000000	0.09343600000000	0.00000000000000	0.00000000000000	0.00000000000000	0.00000000000000	0.00000000000000	0.00000000000000	0.00000000000000	21.36706900000000	0.00000000000000	0.00000000000000	0.00000000000000	0.00000000000000	
23.99991800000000	-18.31486800000000	730.74420199999997	38.46847100000000	0.21437100000000	0.00000000000000	0.09338500000000	0.00000000000000	0.00000000000000	0.00000000000000	0.00000000000000	0.00000000000000	0.00000000000000	0.00000000000000	21.44464600000000	0.00000000000000	0.00000000000000	0.00000000000000	0.00000000000000	
24.00158100000000	-18.76053300000000	731.70714999999996	38.49724800000000	0.21359800000000	0.00000000000000	0.09333800000000	0.00000000000000	0.00000000000000	0.00000000000000	0.00000000000000	0.00000000000000	0.00000000000000	0.00000000000000	21.52347200000000	0.00000000000000	0.00000000000000	0.00000000000000	0.00000000000000	
24.00324500000000	-19.21178300000000	732.68544699999995	38.53027000000000	0.21280400000000	0.00000000000000	0.09329300000000	0.00000000000000	0.00000000000000	0.00000000000000	0.00000000000000	0.00000000000000	0.00000000000000	0.00000000000000	21.60349800000000	0.00000000000000	0.00000000000000	0.00000000000000	0.00000000000000	
24.00490900000000	-19.66833700000000	733.68013499999995	38.56772800000000	0.21198800000000	0.00000000000000	0.09325100000000	0.00000000000000	0.00000000000000	0.00000000000000	0.00000000000000	0.00000000000000	0.00000000000000	0.00000000000000	21.68467200000000	0.00000000000000	0.00000000000000	0.00000000000000	0.00000000000000	
24.00657700000000	-20.12987800000000	734.69225300000005	38.60982400000000	0.21115200000000	0.00000000000000	0.09321100000000	0.00000000000000	0.00000000000000	0.00000000000000	0.00000000000000	0.00000000000000	0.00000000000000	0.00000000000000	21.76694500000000	0.00000000000000	0.00000000000000	0.00000000000000	0.00000000000000	
